<?xml version="1.0" encoding="UTF-8"?> <svg xmlns="http://www.w3.org/2000/svg" width="2186" height="330" viewBox="0 0 2186 330" fill="none"> <path d="M428.442 10.8602L427.78 10.7557C422.869 9.9811 418.507 11.6928 418.037 14.5788L368.744 317.618C368.275 320.504 371.876 323.472 376.787 324.246L377.449 324.351C382.361 325.125 386.723 323.414 387.192 320.528L436.485 17.4885C436.955 14.6024 433.354 11.6348 428.442 10.8602Z" fill="white"></path> <path d="M58.8812 290.194C-38.5337 208.728 -10.5093 55.3012 109.298 10.7829C213.127 -27.7938 326.901 41.4153 337.248 150.279C340.943 189.201 331.728 224.726 309.603 256.855C252.951 339.158 135.758 354.474 58.8812 290.194ZM310.385 165.399C310.417 147.299 306.79 129.371 299.711 112.637C292.631 95.9035 282.238 80.692 269.125 67.8713C256.011 55.0506 240.435 44.8717 223.284 37.9159C206.133 30.9601 187.744 27.3636 169.167 27.3317C131.649 27.2672 95.6415 41.726 69.0663 67.5274C42.4912 93.3288 27.525 128.359 27.4602 164.912C27.4281 183.012 31.0553 200.94 38.1349 217.674C45.2144 234.408 55.6075 249.619 68.7208 262.44C81.8342 275.261 97.4109 285.439 114.562 292.395C131.712 299.351 150.101 302.948 168.678 302.979C206.197 303.044 242.204 288.585 268.779 262.784C295.354 236.982 310.321 201.952 310.385 165.399Z" fill="white"></path> <path d="M131.625 178.667L117.925 246.204C117.755 247.03 117.301 247.773 116.642 248.307C115.982 248.84 115.156 249.131 114.305 249.131L85.8335 249.241C81.4384 249.255 79.6729 247.136 80.537 242.881L107.198 113.199C107.586 111.283 107.261 109.291 106.282 107.588L93.6553 85.7135C93.6355 85.6699 93.6052 85.5352 93.569 85.3291C93.5328 85.1231 93.4925 84.8566 93.4542 84.5692C93.037 81.4296 94.6237 79.8305 98.2143 79.7718C110.342 79.5958 122.32 79.5224 134.15 79.5518C135.175 79.5588 136.17 79.9009 136.982 80.5253C137.794 81.1497 138.377 82.0216 138.642 83.0067C144.005 103.582 157.302 122.816 168.096 141.675C168.188 141.835 168.321 141.969 168.482 142.062C168.643 142.155 168.826 142.204 169.013 142.204C169.199 142.204 169.383 142.155 169.544 142.062C169.705 141.969 169.838 141.835 169.929 141.675C181.058 122.002 192.836 103.692 199.428 81.9504C199.643 81.2631 200.076 80.6615 200.663 80.2339C201.25 79.8062 201.961 79.5749 202.691 79.5738L240.616 79.5958C241.239 79.5951 241.851 79.7578 242.389 80.0672C242.927 80.3766 243.372 80.8216 243.677 81.3563C244.705 83.1314 244.504 85.3027 243.074 87.8701C239.022 95.0881 234.947 101.961 230.85 108.49C230.091 109.689 229.834 111.141 230.134 112.539L257.332 243.079C257.488 243.81 257.476 244.566 257.297 245.293C257.118 246.019 256.776 246.697 256.297 247.279C255.818 247.86 255.213 248.33 254.526 248.654C253.84 248.978 253.088 249.148 252.326 249.153L225.263 249.241C221.985 249.241 220.041 247.664 219.43 244.509C215.392 223.545 211.25 202.5 207.004 181.374C206.781 180.259 206.542 179.459 206.289 178.975C205.649 177.758 205.097 177.794 204.635 179.085C200.777 189.692 196.873 200.241 192.925 210.73C188.187 223.296 187.83 233.88 188.59 246.688C188.62 247.2 188.544 247.713 188.365 248.196C188.187 248.678 187.91 249.119 187.552 249.492C187.195 249.865 186.763 250.162 186.284 250.365C185.805 250.568 185.289 250.672 184.768 250.671H152.877C151.963 250.671 151.085 250.315 150.436 249.68C149.787 249.045 149.419 248.183 149.414 247.282L149.324 222.525C149.309 221.2 149.06 219.882 148.587 218.63L133.323 178.535C132.593 176.628 132.027 176.672 131.625 178.667Z" fill="white"></path> <path d="M517.676 222.085C502.846 222.085 491.489 217.926 483.605 209.608C475.908 201.289 472.06 189.551 472.06 174.394V70.1376C472.06 54.9798 475.908 43.2418 483.605 34.9235C491.489 26.6052 502.846 22.446 517.676 22.446C532.506 22.446 543.77 26.6052 551.466 34.9235C559.351 43.2418 563.293 54.9798 563.293 70.1376V90.6561H534.008V68.1967C534.008 56.1814 528.846 50.1737 518.521 50.1737C508.196 50.1737 503.034 56.1814 503.034 68.1967V176.612C503.034 188.442 508.196 194.358 518.521 194.358C528.846 194.358 534.008 188.442 534.008 176.612V146.943H563.293V174.394C563.293 189.551 559.351 201.289 551.466 209.608C543.77 217.926 532.506 222.085 517.676 222.085Z" fill="white"></path> <path d="M581.825 25.2188H627.723C643.68 25.2188 655.318 28.9158 662.64 36.3098C669.961 43.519 673.621 54.7025 673.621 69.8603V81.7832C673.621 101.932 666.863 114.687 653.347 120.047V120.602C660.856 122.82 666.113 127.349 669.116 134.189C672.307 141.028 673.903 150.178 673.903 161.639V195.744C673.903 201.29 674.091 205.818 674.466 209.331C674.842 212.658 675.78 215.985 677.282 219.312H645.745C644.618 216.17 643.867 213.212 643.492 210.44C643.116 207.667 642.929 202.676 642.929 195.467V159.975C642.929 151.102 641.427 144.91 638.423 141.398C635.608 137.886 630.633 136.129 623.499 136.129H612.799V219.312H581.825V25.2188ZM624.063 108.402C630.257 108.402 634.857 106.831 637.86 103.688C641.051 100.546 642.647 95.2774 642.647 87.8833V72.9104C642.647 65.886 641.333 60.8026 638.705 57.6602C636.265 54.5177 632.322 52.9465 626.878 52.9465H612.799V108.402H624.063Z" fill="white"></path> <path d="M695.394 25.2188H779.869V52.9465H726.368V104.243H768.887V131.97H726.368V191.585H779.869V219.312H695.394V25.2188Z" fill="white"></path> <path d="M821.623 25.2188H863.579L895.68 219.312H864.705L859.074 180.771V181.326H823.876L818.244 219.312H789.522L821.623 25.2188ZM855.413 154.984L841.615 59.0465H841.052L827.536 154.984H855.413Z" fill="white"></path> <path d="M921.999 52.9465H889.617V25.2188H985.356V52.9465H952.973V219.312H921.999V52.9465Z" fill="white"></path> <path d="M1000.35 25.2188H1031.33V219.312H1000.35V25.2188Z" fill="white"></path> <path d="M1046.36 25.2188H1077.61L1097.89 175.78H1098.45L1118.73 25.2188H1147.17L1117.32 219.312H1076.21L1046.36 25.2188Z" fill="white"></path> <path d="M1162.04 25.2188H1246.52V52.9465H1193.02V104.243H1235.54V131.97H1193.02V191.585H1246.52V219.312H1162.04V25.2188Z" fill="white"></path> <path d="M1309.44 25.2188H1391.38V52.9465H1340.41V107.015H1380.39V134.743H1340.41V219.312H1309.44V25.2188Z" fill="white"></path> <path d="M1406.23 25.2188H1437.2V219.312H1406.23V25.2188Z" fill="white"></path> <path d="M1460.4 25.2188H1499.26L1529.39 141.398H1529.95V25.2188H1557.55V219.312H1525.73L1488.56 77.6241H1488V219.312H1460.4V25.2188Z" fill="white"></path> <path d="M1604.51 25.2188H1646.46L1678.56 219.312H1647.59L1641.96 180.771V181.326H1606.76L1601.13 219.312H1572.4L1604.51 25.2188ZM1638.3 154.984L1624.5 59.0465H1623.93L1610.42 154.984H1638.3Z" fill="white"></path> <path d="M1693.59 25.2188H1732.45L1762.58 141.398H1763.14V25.2188H1790.74V219.312H1758.92L1721.75 77.6241H1721.18V219.312H1693.59V25.2188Z" fill="white"></path> <path d="M1857.4 222.085C1842.57 222.085 1831.22 217.926 1823.33 209.608C1815.64 201.289 1811.79 189.551 1811.79 174.394V70.1376C1811.79 54.9798 1815.64 43.2418 1823.33 34.9235C1831.22 26.6052 1842.57 22.446 1857.4 22.446C1872.23 22.446 1883.5 26.6052 1891.19 34.9235C1899.08 43.2418 1903.02 54.9798 1903.02 70.1376V90.6561H1873.74V68.1967C1873.74 56.1814 1868.57 50.1737 1858.25 50.1737C1847.92 50.1737 1842.76 56.1814 1842.76 68.1967V176.612C1842.76 188.442 1847.92 194.358 1858.25 194.358C1868.57 194.358 1873.74 188.442 1873.74 176.612V146.943H1903.02V174.394C1903.02 189.551 1899.08 201.289 1891.19 209.608C1883.5 217.926 1872.23 222.085 1857.4 222.085Z" fill="white"></path> <path d="M1921.55 25.2188H1952.53V219.312H1921.55V25.2188Z" fill="white"></path> <path d="M1975.72 25.2188H2014.58L2044.71 141.398H2045.28V25.2188H2072.87V219.312H2041.05L2003.88 77.6241H2003.32V219.312H1975.72V25.2188Z" fill="white"></path> <path d="M2139.82 222.085C2124.8 222.085 2113.35 217.926 2105.47 209.608C2097.58 201.105 2093.64 188.997 2093.64 173.285V71.2467C2093.64 55.5344 2097.58 43.519 2105.47 35.2007C2113.35 26.6976 2124.8 22.446 2139.82 22.446C2154.84 22.446 2166.29 26.6976 2174.17 35.2007C2182.06 43.519 2186 55.5344 2186 71.2467V87.8833H2156.72V69.3058C2156.72 56.5511 2151.37 50.1737 2140.66 50.1737C2129.96 50.1737 2124.61 56.5511 2124.61 69.3058V175.503C2124.61 188.073 2129.96 194.358 2140.66 194.358C2151.37 194.358 2156.72 188.073 2156.72 175.503V137.516H2141.23V109.788H2186V173.285C2186 188.997 2182.06 201.105 2174.17 209.608C2166.29 217.926 2154.84 222.085 2139.82 222.085Z" fill="white"></path> <path d="M501.364 272.873H511.262V322.741H501.364V272.873ZM506.265 263.789C504.536 263.789 503.094 263.221 501.941 262.086C500.788 260.95 500.211 259.531 500.211 257.828C500.211 256.124 500.788 254.705 501.941 253.569C503.094 252.434 504.536 251.866 506.265 251.866C507.995 251.866 509.437 252.465 510.59 253.664C511.743 254.8 512.319 256.187 512.319 257.828C512.319 259.468 511.743 260.887 510.59 262.086C509.437 263.221 507.995 263.789 506.265 263.789Z" fill="#8A8A8A"></path> <path d="M636.346 272.873H646.34V281.389H647.109C648.326 278.614 650.312 276.28 653.067 274.387C655.822 272.495 659.217 271.548 663.253 271.548C667.609 271.548 671.197 272.589 674.016 274.671C676.835 276.69 678.885 279.308 680.166 282.525C681.447 285.679 682.088 289.054 682.088 292.65V322.741H672.19V294.069C672.19 289.527 671.005 286.058 668.634 283.66C666.328 281.263 663.253 280.065 659.409 280.065C655.373 280.065 652.17 281.358 649.8 283.944C647.493 286.531 646.34 289.906 646.34 294.069V322.741H636.346V272.873Z" fill="#8A8A8A"></path> <path d="M801.382 272.873H810.895L825.118 312.616H825.598L839.724 272.873H849.238L831.364 322.741H819.16L801.382 272.873Z" fill="#8A8A8A"></path> <path d="M989.355 323.403C984.101 323.403 979.681 322.173 976.093 319.713C972.506 317.253 969.847 314.067 968.117 310.156C966.388 306.182 965.523 301.955 965.523 297.476C965.523 292.997 966.388 288.802 968.117 284.891C969.847 280.916 972.506 277.699 976.093 275.239C979.745 272.778 984.198 271.548 989.451 271.548C996.37 271.548 1001.88 273.788 1005.98 278.267C1010.08 282.683 1012.13 289.117 1012.13 297.571V300.315H975.229V300.977C975.229 303.5 975.805 305.866 976.958 308.074C978.111 310.282 979.745 312.08 981.859 313.468C983.973 314.793 986.408 315.455 989.162 315.455C992.174 315.455 994.768 314.729 996.946 313.278C999.124 311.764 1000.69 309.746 1001.66 307.222H1011.46C1010.18 311.891 1007.65 315.77 1003.87 318.861C1000.09 321.889 995.249 323.403 989.355 323.403ZM1002.42 293.596C1002.17 288.486 1000.85 284.796 998.484 282.525C996.178 280.191 993.102 279.024 989.259 279.024C985.158 279.024 981.859 280.349 979.361 282.998C976.926 285.648 975.645 289.18 975.517 293.596H1002.42Z" fill="#8A8A8A"></path> <path d="M1151.67 323.403C1147.5 323.403 1143.91 322.615 1140.9 321.038C1137.89 319.461 1135.59 317.411 1133.98 314.887C1132.38 312.301 1131.58 309.62 1131.58 306.844V306.371H1141.38V306.749C1141.38 309.02 1142.31 311.071 1144.17 312.9C1146.03 314.666 1148.62 315.55 1151.96 315.55C1154.71 315.55 1156.98 314.887 1158.78 313.562C1160.57 312.238 1161.47 310.44 1161.47 308.169C1161.47 306.213 1160.76 304.699 1159.35 303.627C1157.94 302.491 1156.15 301.734 1153.97 301.356L1147.63 300.409C1143.53 299.779 1140.04 298.359 1137.16 296.151C1134.27 293.88 1132.83 290.6 1132.83 286.31C1132.83 281.642 1134.53 278.014 1137.92 275.428C1141.32 272.842 1145.71 271.548 1151.09 271.548C1155 271.548 1158.39 272.274 1161.28 273.725C1164.16 275.113 1166.34 276.974 1167.81 279.308C1169.28 281.642 1170.02 284.165 1170.02 286.878V287.256H1160.22V287.067C1160.22 285.175 1159.45 283.345 1157.91 281.579C1156.38 279.812 1154 278.929 1150.8 278.929C1148.11 278.929 1145.93 279.592 1144.27 280.916C1142.6 282.241 1141.77 283.976 1141.77 286.121C1141.77 287.95 1142.47 289.433 1143.88 290.568C1145.29 291.704 1147.05 292.429 1149.17 292.745L1156.09 293.975C1160.32 294.732 1163.84 296.214 1166.66 298.422C1169.54 300.63 1170.98 303.847 1170.98 308.074C1170.98 311.102 1170.15 313.783 1168.48 316.117C1166.82 318.451 1164.51 320.249 1161.56 321.511C1158.62 322.773 1155.32 323.403 1151.67 323.403Z" fill="#8A8A8A"></path> <path d="M1307.35 280.632V307.317C1307.35 309.651 1307.45 311.354 1307.64 312.427C1307.9 313.499 1308.51 314.351 1309.47 314.982C1310.49 315.613 1312.16 315.928 1314.47 315.928C1316.07 315.928 1317.64 315.739 1319.17 315.36V322.268C1318.73 322.457 1317.67 322.646 1316 322.836C1314.34 323.025 1312.67 323.12 1311.01 323.12C1306.97 323.12 1303.96 322.552 1301.97 321.416C1299.99 320.218 1298.71 318.704 1298.13 316.874C1297.62 314.982 1297.36 312.521 1297.36 309.493L1297.46 280.632H1288.33V272.873H1297.46V256.503H1307.35V272.873H1319.17V280.632H1307.35Z" fill="#8A8A8A"></path> <path d="M1441.72 272.873H1451.61V281.673H1452.38C1452.58 280.916 1453.22 279.749 1454.3 278.172C1455.39 276.595 1457.06 275.113 1459.3 273.725C1461.54 272.274 1464.36 271.548 1467.76 271.548C1471.41 271.548 1474.42 272.368 1476.79 274.009C1479.23 275.649 1481.02 277.415 1482.17 279.308C1483.33 281.2 1483.9 282.399 1483.9 282.904H1484.67C1484.99 282.02 1485.7 280.727 1486.79 279.024C1487.94 277.257 1489.76 275.586 1492.26 274.009C1494.83 272.368 1498 271.548 1501.78 271.548C1505.94 271.548 1509.37 272.621 1512.06 274.766C1514.81 276.847 1516.8 279.497 1518.02 282.714C1519.23 285.868 1519.84 289.149 1519.84 292.555V322.741H1509.94V293.502C1509.94 289.212 1508.79 285.963 1506.49 283.755C1504.24 281.484 1501.46 280.349 1498.13 280.349C1494.67 280.349 1491.72 281.516 1489.28 283.85C1486.91 286.121 1485.73 289.338 1485.73 293.502V322.741H1475.83V293.502C1475.83 289.212 1474.68 285.963 1472.37 283.755C1470.13 281.484 1467.34 280.349 1464.01 280.349C1460.55 280.349 1457.6 281.516 1455.17 283.85C1452.8 286.121 1451.61 289.338 1451.61 293.502V322.741H1441.72V272.873Z" fill="#8A8A8A"></path> <path d="M1665.16 323.403C1659.91 323.403 1655.49 322.173 1651.9 319.713C1648.31 317.253 1645.66 314.067 1643.93 310.156C1642.2 306.182 1641.33 301.955 1641.33 297.476C1641.33 292.997 1642.2 288.802 1643.93 284.891C1645.66 280.916 1648.31 277.699 1651.9 275.239C1655.55 272.778 1660.01 271.548 1665.26 271.548C1672.18 271.548 1677.69 273.788 1681.79 278.267C1685.89 282.683 1687.94 289.117 1687.94 297.571V300.315H1651.04V300.977C1651.04 303.5 1651.61 305.866 1652.77 308.074C1653.92 310.282 1655.55 312.08 1657.67 313.468C1659.78 314.793 1662.22 315.455 1664.97 315.455C1667.98 315.455 1670.58 314.729 1672.76 313.278C1674.93 311.764 1676.5 309.746 1677.46 307.222H1687.27C1685.98 311.891 1683.45 315.77 1679.67 318.861C1675.89 321.889 1671.06 323.403 1665.16 323.403ZM1678.23 293.596C1677.98 288.486 1676.66 284.796 1674.29 282.525C1671.99 280.191 1668.91 279.024 1665.07 279.024C1660.97 279.024 1657.67 280.349 1655.17 282.998C1652.74 285.648 1651.45 289.18 1651.33 293.596H1678.23Z" fill="#8A8A8A"></path> <path d="M1809.7 272.873H1819.69V281.389H1820.46C1821.68 278.614 1823.66 276.28 1826.42 274.387C1829.17 272.495 1832.57 271.548 1836.6 271.548C1840.96 271.548 1844.55 272.589 1847.37 274.671C1850.19 276.69 1852.24 279.308 1853.52 282.525C1854.8 285.679 1855.44 289.054 1855.44 292.65V322.741H1845.54V294.069C1845.54 289.527 1844.36 286.058 1841.99 283.66C1839.68 281.263 1836.6 280.065 1832.76 280.065C1828.72 280.065 1825.52 281.358 1823.15 283.944C1820.85 286.531 1819.69 289.906 1819.69 294.069V322.741H1809.7V272.873Z" fill="#8A8A8A"></path> <path d="M1992.45 280.632V307.317C1992.45 309.651 1992.55 311.354 1992.74 312.427C1993 313.499 1993.61 314.351 1994.57 314.982C1995.59 315.613 1997.26 315.928 1999.56 315.928C2001.17 315.928 2002.74 315.739 2004.27 315.36V322.268C2003.83 322.457 2002.77 322.646 2001.1 322.836C1999.44 323.025 1997.77 323.12 1996.11 323.12C1992.07 323.12 1989.06 322.552 1987.07 321.416C1985.09 320.218 1983.81 318.704 1983.23 316.874C1982.72 314.982 1982.46 312.521 1982.46 309.493L1982.56 280.632H1973.43V272.873H1982.56V256.503H1992.45V272.873H2004.27V280.632H1992.45Z" fill="#8A8A8A"></path> <path d="M2144.03 323.403C2139.87 323.403 2136.28 322.615 2133.27 321.038C2130.26 319.461 2127.95 317.411 2126.35 314.887C2124.75 312.301 2123.95 309.62 2123.95 306.844V306.371H2133.75V306.749C2133.75 309.02 2134.68 311.071 2136.54 312.9C2138.39 314.666 2140.99 315.55 2144.32 315.55C2147.07 315.55 2149.35 314.887 2151.14 313.562C2152.94 312.238 2153.83 310.44 2153.83 308.169C2153.83 306.213 2153.13 304.699 2151.72 303.627C2150.31 302.491 2148.52 301.734 2146.34 301.356L2139.99 300.409C2135.89 299.779 2132.4 298.359 2129.52 296.151C2126.64 293.88 2125.2 290.6 2125.2 286.31C2125.2 281.642 2126.89 278.014 2130.29 275.428C2133.68 272.842 2138.07 271.548 2143.45 271.548C2147.36 271.548 2150.76 272.274 2153.64 273.725C2156.52 275.113 2158.7 276.974 2160.17 279.308C2161.65 281.642 2162.39 284.165 2162.39 286.878V287.256H2152.58V287.067C2152.58 285.175 2151.81 283.345 2150.28 281.579C2148.74 279.812 2146.37 278.929 2143.17 278.929C2140.48 278.929 2138.3 279.592 2136.63 280.916C2134.97 282.241 2134.13 283.976 2134.13 286.121C2134.13 287.95 2134.84 289.433 2136.25 290.568C2137.66 291.704 2139.42 292.429 2141.53 292.745L2148.45 293.975C2152.68 294.732 2156.2 296.214 2159.02 298.422C2161.9 300.63 2163.35 303.847 2163.35 308.074C2163.35 311.102 2162.51 313.783 2160.85 316.117C2159.18 318.451 2156.88 320.249 2153.93 321.511C2150.98 322.773 2147.68 323.403 2144.03 323.403Z" fill="#8A8A8A"></path> </svg> 